<svg xmlns="http://www.w3.org/2000/svg" viewBox="0 0 185199 122825" style="background:white">
<g stroke="#cdd1d6" stroke-width="370" fill="none" stroke-linecap="round">
<line x1="95282" y1="45637" x2="134118" y2="45637"/>
<line x1="167853" y1="114098" x2="167853" y2="106943"/>
<line x1="161021" y1="66907" x2="166465" y2="61463"/>
<line x1="94403" y1="77043" x2="101403" y2="77043"/>
<line x1="101403" y1="78243" x2="127853" y2="78243"/>
<line x1="127853" y1="77043" x2="134603" y2="77043"/>
<line x1="134603" y1="78243" x2="140293" y2="78243"/>
<line x1="140293" y1="78243" x2="140293" y2="67893"/>
<line x1="140293" y1="67893" x2="150028" y2="67893"/>
<line x1="85918" y1="87843" x2="74738" y2="87843"/>
<line x1="95282" y1="68518" x2="89368" y2="68518"/>
<line x1="95282" y1="48343" x2="95282" y2="68518"/>
<line x1="181203" y1="88343" x2="186203" y2="88343"/>
<line x1="167853" y1="124272" x2="131983" y2="88219"/>
<line x1="167782" y1="124343" x2="131945" y2="88311"/>
<line x1="107713" y1="88233" x2="121293" y2="88233"/>
<line x1="107803" y1="88143" x2="111903" y2="88143"/>
<line x1="111683" y1="77943" x2="117603" y2="77943"/>
<line x1="111248" y1="70572" x2="118048" y2="70572"/>
<line x1="103286" y1="78243" x2="117703" y2="78243"/>
<line x1="140353" y1="92061" x2="158082" y2="109790"/>
<line x1="140453" y1="92019" x2="158153" y2="109719"/>
<line x1="181803" y1="65807" x2="181803" y2="58713"/>
<line x1="181893" y1="65807" x2="181893" y2="60253"/>
<line x1="169038" y1="58713" x2="181803" y2="58713"/>
<line x1="167053" y1="58183" x2="167053" y2="21795"/>
<line x1="168053" y1="58183" x2="168053" y2="21798"/>
<line x1="184203" y1="58213" x2="166253" y2="58213"/>
<line x1="168106" y1="94643" x2="174603" y2="94643"/>
<line x1="168003" y1="91493" x2="174603" y2="91493"/>
<line x1="170253" y1="88518" x2="170253" y2="83443"/>
<line x1="172753" y1="83443" x2="172753" y2="88518"/>
<line x1="172828" y1="83233" x2="172828" y2="88593"/>
<line x1="181750" y1="66807" x2="169133" y2="66807"/>
<line x1="169133" y1="66907" x2="181750" y2="66907"/>
<line x1="181750" y1="74950" x2="169133" y2="74952"/>
<line x1="169133" y1="75052" x2="181750" y2="75050"/>
<line x1="172828" y1="83233" x2="181893" y2="83233"/>
<line x1="170153" y1="83143" x2="181803" y2="83143"/>
<line x1="181803" y1="73950" x2="181803" y2="66707"/>
<line x1="181893" y1="73950" x2="181893" y2="66707"/>
<line x1="181803" y1="83143" x2="181803" y2="76050"/>
<line x1="181213" y1="106893" x2="169038" y2="106893"/>
<line x1="169038" y1="106993" x2="181213" y2="106993"/>
<line x1="169123" y1="94493" x2="174603" y2="94493"/>
<line x1="167853" y1="77628" x2="167853" y2="72378"/>
<line x1="167853" y1="77627" x2="167853" y2="72378"/>
<line x1="167853" y1="69478" x2="167853" y2="65268"/>
<line x1="167853" y1="69476" x2="167853" y2="65268"/>
<line x1="167853" y1="88443" x2="167853" y2="80529"/>
<line x1="156013" y1="88343" x2="156013" y2="100903"/>
<line x1="152193" y1="88343" x2="152193" y2="100903"/>
<line x1="157613" y1="88343" x2="157613" y2="100903"/>
<line x1="158153" y1="100793" x2="158153" y2="89593"/>
<line x1="158253" y1="100793" x2="158253" y2="89493"/>
<line x1="156213" y1="89513" x2="156213" y2="99733"/>
<line x1="156283" y1="89513" x2="156283" y2="99733"/>
<line x1="155943" y1="89543" x2="155943" y2="98339"/>
<line x1="155893" y1="89543" x2="155893" y2="98339"/>
<line x1="157343" y1="89513" x2="157343" y2="99733"/>
<line x1="157413" y1="89513" x2="157413" y2="99733"/>
<line x1="151923" y1="89513" x2="151923" y2="99733"/>
<line x1="151993" y1="89513" x2="151993" y2="99733"/>
<line x1="152313" y1="89543" x2="152313" y2="98339"/>
<line x1="152263" y1="89543" x2="152263" y2="98339"/>
<line x1="158253" y1="101493" x2="158253" y2="109719"/>
<line x1="158153" y1="101493" x2="158153" y2="109719"/>
<line x1="133732" y1="72393" x2="133732" y2="58213"/>
<line x1="134074" y1="64543" x2="134074" y2="58213"/>
<line x1="133353" y1="42008" x2="140203" y2="42008"/>
<line x1="129078" y1="45979" x2="133703" y2="45979"/>
<line x1="129078" y1="45637" x2="134118" y2="45637"/>
<line x1="134118" y1="49848" x2="134118" y2="45637"/>
<line x1="140203" y1="46358" x2="140203" y2="42008"/>
<line x1="141803" y1="58213" x2="136853" y2="58213"/>
<line x1="138799" y1="76193" x2="138799" y2="70763"/>
<line x1="138709" y1="76103" x2="138709" y2="70673"/>
<line x1="140203" y1="64633" x2="133822" y2="64633"/>
<line x1="140293" y1="64543" x2="134074" y2="64543"/>
<line x1="141803" y1="61993" x2="136853" y2="61993"/>
<line x1="140203" y1="64633" x2="140203" y2="68818"/>
<line x1="140293" y1="64543" x2="140293" y2="68818"/>
<line x1="140293" y1="78243" x2="140293" y2="72003"/>
<line x1="133822" y1="72993" x2="133822" y2="64633"/>
<line x1="150593" y1="88343" x2="150593" y2="100903"/>
<line x1="150793" y1="89513" x2="150793" y2="99733"/>
<line x1="150863" y1="89513" x2="150863" y2="99733"/>
<line x1="127153" y1="74993" x2="120803" y2="74993"/>
<line x1="120903" y1="76543" x2="125453" y2="76543"/>
<line x1="119548" y1="70572" x2="124684" y2="70572"/>
<line x1="119548" y1="70722" x2="124684" y2="70722"/>
<line x1="127803" y1="87723" x2="121203" y2="87723"/>
<line x1="127713" y1="87813" x2="121293" y2="87813"/>
<line x1="127803" y1="88219" x2="131983" y2="88219"/>
<line x1="116803" y1="88143" x2="121203" y2="88143"/>
<line x1="74738" y1="87933" x2="85918" y2="87933"/>
<line x1="95282" y1="57668" x2="95282" y2="68518"/>
<line x1="95624" y1="58010" x2="95624" y2="72392"/>
<line x1="95624" y1="45979" x2="101177" y2="45979"/>
<line x1="95282" y1="45637" x2="101177" y2="45637"/>
<line x1="100678" y1="42708" x2="93353" y2="42708"/>
<line x1="100678" y1="42008" x2="92803" y2="42008"/>
<line x1="94068" y1="39758" x2="100003" y2="39758"/>
<line x1="94403" y1="39758" x2="100003" y2="39758"/>
<line x1="99565" y1="40260" x2="92653" y2="40258"/>
<line x1="99565" y1="40760" x2="92803" y2="40758"/>
<line x1="100828" y1="39008" x2="94103" y2="39008"/>
<line x1="100678" y1="39158" x2="94103" y2="39158"/>
<line x1="95624" y1="45979" x2="95624" y2="51226"/>
<line x1="95282" y1="45637" x2="95282" y2="51568"/>
<line x1="107803" y1="87723" x2="94313" y2="87723"/>
<line x1="105463" y1="70572" x2="109748" y2="70572"/>
<line x1="105463" y1="70722" x2="109748" y2="70722"/>
<line x1="107883" y1="77943" x2="103558" y2="77943"/>
<line x1="114378" y1="74943" x2="107983" y2="74943"/>
<line x1="100403" y1="69532" x2="100403" y2="73742"/>
<line x1="86008" y1="85233" x2="90083" y2="85233"/>
<line x1="94403" y1="78243" x2="89368" y2="78243"/>
<line x1="85918" y1="85143" x2="93388" y2="85143"/>
<line x1="93632" y1="68518" x2="89368" y2="68518"/>
<line x1="91568" y1="75693" x2="91568" y2="71043"/>
<line x1="92168" y1="75693" x2="92168" y2="71043"/>
<line x1="92258" y1="75783" x2="92258" y2="70953"/>
<line x1="90368" y1="78043" x2="90368" y2="68643"/>
<line x1="89368" y1="75693" x2="89368" y2="71043"/>
<line x1="167903" y1="128903" x2="174503" y2="128903"/>
<line x1="182403" y1="128903" x2="167853" y2="128903"/>
<line x1="175498" y1="127268" x2="180668" y2="127268"/>
<line x1="181703" y1="128253" x2="174463" y2="128253"/>
<line x1="171860" y1="119563" x2="181703" y2="119563"/>
<line x1="171860" y1="119713" x2="176353" y2="119713"/>
<line x1="181703" y1="121763" x2="170091" y2="121763"/>
<line x1="180668" y1="122798" x2="180668" y2="127268"/>
<line x1="182403" y1="128902" x2="182403" y2="121563"/>
<line x1="181703" y1="128253" x2="181703" y2="121763"/>
<line x1="182403" y1="113943" x2="182403" y2="121563"/>
<line x1="174463" y1="128253" x2="174463" y2="123843"/>
<line x1="167853" y1="124343" x2="167853" y2="128903"/>
<line x1="-3797" y1="31123" x2="-3797" y2="24107"/>
<line x1="-3597" y1="31123" x2="-3597" y2="25507"/>
<line x1="176353" y1="121613" x2="170153" y2="121613"/>
<line x1="112303" y1="88143" x2="116403" y2="88143"/>
<line x1="103303" y1="87813" x2="94403" y2="87813"/>
<line x1="11710" y1="-1941" x2="10138" y2="-6716"/>
<line x1="11601" y1="-1791" x2="10000" y2="-6655"/>
<line x1="-60086" y1="22859" x2="-2443" y2="22859"/>
<line x1="13577" y1="20888" x2="41423" y2="13890"/>
<line x1="41327" y1="20888" x2="13577" y2="13857"/>
<line x1="90501" y1="16490" x2="90501" y2="10830"/>
<line x1="90501" y1="8813" x2="90501" y2="-2338"/>
<line x1="90527" y1="16547" x2="90527" y2="10850"/>
<line x1="90527" y1="8787" x2="90527" y2="-2364"/>
<line x1="90351" y1="16368" x2="90351" y2="10830"/>
<line x1="90351" y1="10654" x2="90351" y2="-2188"/>
<line x1="90325" y1="10628" x2="90325" y2="-2162"/>
<line x1="98677" y1="-1316" x2="98677" y2="7597"/>
<line x1="98877" y1="7597" x2="98877" y2="-1316"/>
<line x1="91967" y1="-3638" x2="98877" y2="-3638"/>
<line x1="106519" y1="23107" x2="101777" y2="23107"/>
<line x1="101777" y1="23107" x2="101777" y2="13609"/>
<line x1="-87223" y1="13089" x2="-75299" y2="17429"/>
<line x1="-75333" y1="17523" x2="-60121" y2="23059"/>
<line x1="-60086" y1="22859" x2="-75265" y2="17335"/>
<line x1="-75123" y1="17280" x2="-87223" y2="12876"/>
<line x1="-76200" y1="16845" x2="-87183" y2="12848"/>
<line x1="-75123" y1="17280" x2="-75123" y2="13259"/>
<line x1="57810" y1="-6399" x2="48659" y2="-6399"/>
<line x1="57187" y1="-6550" x2="48659" y2="-6549"/>
<line x1="72942" y1="-6677" x2="76962" y2="-6134"/>
<line x1="84858" y1="-5068" x2="88901" y2="-4522"/>
<line x1="72922" y1="-6528" x2="76942" y2="-5985"/>
<line x1="84838" y1="-4919" x2="88881" y2="-4373"/>
<line x1="-3797" y1="31123" x2="-3797" y2="23109"/>
<line x1="-3597" y1="31123" x2="-3597" y2="23109"/>
<line x1="-2597" y1="31123" x2="-2597" y2="23060"/>
<line x1="-2647" y1="31075" x2="-2647" y2="23059"/>
<line x1="-2447" y1="31123" x2="-2447" y2="23060"/>
<line x1="-60121" y1="23059" x2="-2443" y2="23060"/>
<line x1="67868" y1="-6288" x2="86588" y2="-3762"/>
<line x1="67858" y1="-6138" x2="86568" y2="-3613"/>
<line x1="67856" y1="-6103" x2="86577" y2="-3577"/>
<line x1="67855" y1="-6090" x2="87177" y2="-3483"/>
<line x1="67854" y1="-6077" x2="86577" y2="-3551"/>
<line x1="67830" y1="-5717" x2="86512" y2="-3196"/>
<line x1="58491" y1="19396" x2="54246" y2="19396"/>
<line x1="58491" y1="19488" x2="54246" y2="19488"/>
<line x1="94995" y1="36258" x2="99895" y2="36258"/>
<line x1="94645" y1="36333" x2="100245" y2="36333"/>
<line x1="99895" y1="39008" x2="94995" y2="39008"/>
<line x1="95395" y1="36258" x2="95395" y2="23184"/>
<line x1="99895" y1="37633" x2="94995" y2="37633"/>
<line x1="48659" y1="-4836" x2="42894" y2="-4836"/>
<line x1="48809" y1="-4686" x2="43727" y2="-4686"/>
<line x1="-17157" y1="1403" x2="-17157" y2="16310"/>
<line x1="-35248" y1="-7293" x2="-41381" y2="-7293"/>
<line x1="-41631" y1="-7293" x2="-48016" y2="-7293"/>
<line x1="-35248" y1="-7143" x2="-41381" y2="-7143"/>
<line x1="-41631" y1="-7143" x2="-48016" y2="-7143"/>
<line x1="-44673" y1="-8591" x2="-72523" y2="-8591"/>
<line x1="-73163" y1="-7253" x2="-78738" y2="-6471"/>
<line x1="-73291" y1="-7084" x2="-78717" y2="-6323"/>
<line x1="-79035" y1="-6430" x2="-83811" y2="-5760"/>
<line x1="94995" y1="36258" x2="94995" y2="23284"/>
<line x1="60735" y1="-7369" x2="54715" y2="-7369"/>
<line x1="-88433" y1="12755" x2="-75333" y2="17523"/>
<line x1="-80065" y1="1409" x2="-87902" y2="1409"/>
<line x1="-88433" y1="859" x2="-80055" y2="859"/>
<line x1="124401" y1="-20412" x2="124401" y2="-11447"/>
<line x1="25915" y1="-1941" x2="18781" y2="-1941"/>
<line x1="60874" y1="-7349" x2="64877" y2="-7349"/>
<line x1="60874" y1="-7199" x2="64877" y2="-7199"/>
<line x1="13577" y1="17177" x2="20873" y2="17177"/>
<line x1="13577" y1="17127" x2="20823" y2="17127"/>
<line x1="13577" y1="15457" x2="19958" y2="15457"/>
<line x1="13577" y1="15557" x2="19958" y2="15557"/>
<line x1="13577" y1="15507" x2="19958" y2="15507"/>
<line x1="13577" y1="13887" x2="20727" y2="13887"/>
<line x1="13577" y1="13887" x2="20823" y2="13887"/>
<line x1="13577" y1="14087" x2="19958" y2="14087"/>
<line x1="13577" y1="14162" x2="19844" y2="14162"/>
<line x1="13577" y1="13837" x2="20873" y2="13837"/>
<line x1="13577" y1="14697" x2="17708" y2="14697"/>
<line x1="13577" y1="16927" x2="19958" y2="16927"/>
<line x1="13577" y1="16852" x2="19844" y2="16852"/>
<line x1="13577" y1="16317" x2="17732" y2="16317"/>
<line x1="24567" y1="17180" x2="41473" y2="17180"/>
<line x1="24617" y1="17130" x2="41423" y2="17130"/>
<line x1="24617" y1="15510" x2="40633" y2="15510"/>
<line x1="24567" y1="15460" x2="40633" y2="15460"/>
<line x1="24567" y1="15560" x2="40633" y2="15560"/>
<line x1="24617" y1="13890" x2="31008" y2="13890"/>
<line x1="24617" y1="13890" x2="41423" y2="13890"/>
<line x1="25407" y1="15310" x2="40633" y2="15310"/>
<line x1="25407" y1="14090" x2="40558" y2="14090"/>
<line x1="25595" y1="14165" x2="40444" y2="14165"/>
<line x1="25595" y1="15235" x2="40444" y2="15235"/>
<line x1="24567" y1="13840" x2="41473" y2="13840"/>
<line x1="27562" y1="14700" x2="39579" y2="14700"/>
<line x1="25407" y1="15710" x2="40633" y2="15710"/>
<line x1="25407" y1="16930" x2="40558" y2="16930"/>
<line x1="25595" y1="16855" x2="40444" y2="16855"/>
<line x1="25595" y1="15785" x2="40444" y2="15785"/>
<line x1="27461" y1="16320" x2="39567" y2="16320"/>
<line x1="13577" y1="13857" x2="41327" y2="13857"/>
<line x1="-55533" y1="21379" x2="-61843" y2="21379"/>
<line x1="101577" y1="13809" x2="101577" y2="23307"/>
<line x1="106519" y1="23307" x2="101577" y2="23307"/>
<line x1="-42629" y1="21749" x2="-36416" y2="21749"/>
<line x1="58535" y1="13512" x2="58535" y2="8499"/>
<line x1="51087" y1="13106" x2="51087" y2="7959"/>
<line x1="61026" y1="7959" x2="54226" y2="7959"/>
<line x1="58470" y1="7979" x2="54226" y2="7979"/>
<line x1="58470" y1="8071" x2="54437" y2="8071"/>
<line x1="58434" y1="8083" x2="58434" y2="13503"/>
<line x1="58443" y1="8499" x2="58443" y2="13512"/>
<line x1="58905" y1="13512" x2="58905" y2="8499"/>
<line x1="59006" y1="8083" x2="59006" y2="13503"/>
<line x1="58997" y1="8499" x2="58997" y2="13512"/>
<line x1="62374" y1="13630" x2="62374" y2="8071"/>
<line x1="62365" y1="13639" x2="62365" y2="8083"/>
<line x1="62400" y1="12584" x2="62400" y2="8045"/>
<line x1="62492" y1="12584" x2="62492" y2="7953"/>
<line x1="62518" y1="12584" x2="62518" y2="7927"/>
<line x1="-5913" y1="19874" x2="-5913" y2="10169"/>
<line x1="-5913" y1="10169" x2="-203" y2="10169"/>
<line x1="-1988" y1="8709" x2="2837" y2="8709"/>
<line x1="2837" y1="6984" x2="-1988" y2="6984"/>
<line x1="-8062" y1="8749" x2="-203" y2="8749"/>
<line x1="-8062" y1="8729" x2="-1988" y2="8729"/>
<line x1="-8062" y1="8637" x2="-1988" y2="8637"/>
<line x1="-7770" y1="8475" x2="-1988" y2="8475"/>
<line x1="-8062" y1="8625" x2="-1988" y2="8625"/>
<line x1="-2015" y1="6956" x2="3627" y2="6956"/>
<line x1="-61103" y1="18463" x2="-69269" y2="18463"/>
<line x1="-61103" y1="18472" x2="-69269" y2="18472"/>
<line x1="-61103" y1="18564" x2="-69269" y2="18564"/>
<line x1="-63838" y1="18573" x2="-69269" y2="18573"/>
<line x1="-57337" y1="21343" x2="-61807" y2="21343"/>
<line x1="-63909" y1="21429" x2="-69269" y2="19479"/>
<line x1="-75083" y1="13259" x2="-75083" y2="17358"/>
<line x1="-75083" y1="17358" x2="-69387" y2="19432"/>
<line x1="-75463" y1="12199" x2="-80399" y2="12199"/>
<line x1="-17060" y1="16513" x2="-8088" y2="16513"/>
<line x1="-14546" y1="16588" x2="-9578" y2="16588"/>
<line x1="-14559" y1="16575" x2="-9565" y2="16575"/>
<line x1="-14546" y1="16738" x2="-9578" y2="16738"/>
<line x1="-14559" y1="16751" x2="-9683" y2="16751"/>
<line x1="-14454" y1="16786" x2="-9683" y2="16786"/>
<line x1="-14454" y1="16798" x2="-9683" y2="16798"/>
<line x1="-14432" y1="16807" x2="-9692" y2="16807"/>
<line x1="-34860" y1="16350" x2="-8264" y2="16350"/>
<line x1="-34873" y1="16363" x2="-26187" y2="16363"/>
<line x1="-25994" y1="16363" x2="-17253" y2="16363"/>
<line x1="-34873" y1="16513" x2="-26187" y2="16513"/>
<line x1="-25994" y1="16513" x2="-17253" y2="16513"/>
<line x1="-17060" y1="16363" x2="-8238" y2="16363"/>
<line x1="-8238" y1="3229" x2="-8238" y2="14605"/>
<line x1="-8264" y1="3229" x2="-8264" y2="14631"/>
<line x1="-8088" y1="3229" x2="-8088" y2="12857"/>
<line x1="-8062" y1="3229" x2="-8062" y2="12831"/>
<line x1="-69211" y1="16513" x2="-60775" y2="16513"/>
<line x1="-60582" y1="16513" x2="-49756" y2="16513"/>
<line x1="-49563" y1="16513" x2="-38489" y2="16513"/>
<line x1="-44646" y1="16588" x2="-36950" y2="16588"/>
<line x1="-44659" y1="16575" x2="-36928" y2="16575"/>
<line x1="-44646" y1="16738" x2="-36950" y2="16738"/>
<line x1="-44659" y1="16751" x2="-36937" y2="16751"/>
<line x1="-44554" y1="16786" x2="-36928" y2="16786"/>
<line x1="-44554" y1="16798" x2="-36928" y2="16798"/>
<line x1="-44532" y1="16807" x2="-36928" y2="16807"/>
<line x1="-71672" y1="16350" x2="-38665" y2="16350"/>
<line x1="-69374" y1="16363" x2="-60775" y2="16363"/>
<line x1="-60582" y1="16363" x2="-49756" y2="16363"/>
<line x1="-49563" y1="16363" x2="-38639" y2="16363"/>
<line x1="-71698" y1="16363" x2="-65468" y2="16363"/>
<line x1="-7678" y1="3633" x2="-7678" y2="8383"/>
<line x1="-7669" y1="3645" x2="-7669" y2="8374"/>
<line x1="-7770" y1="1528" x2="-7770" y2="8475"/>
<line x1="-3134" y1="3633" x2="-7678" y2="3633"/>
<line x1="-3134" y1="3645" x2="-7669" y2="3645"/>
<line x1="4940" y1="3019" x2="444" y2="3019"/>
<line x1="4928" y1="3031" x2="432" y2="3031"/>
<line x1="-7678" y1="8383" x2="-1988" y2="8383"/>
<line x1="-7669" y1="8374" x2="-2024" y2="8374"/>
<line x1="-2024" y1="8324" x2="-2024" y2="3645"/>
<line x1="7132" y1="11519" x2="7132" y2="16619"/>
<line x1="7132" y1="16769" x2="7132" y2="22936"/>
<line x1="7119" y1="16782" x2="7119" y2="22923"/>
<line x1="7282" y1="9982" x2="7282" y2="23086"/>
<line x1="-34983" y1="3284" x2="-34983" y2="14631"/>
<line x1="-38639" y1="3239" x2="-38639" y2="14605"/>
<line x1="-38489" y1="3239" x2="-38489" y2="12855"/>
<line x1="-38665" y1="1105" x2="-38665" y2="14631"/>
<line x1="-38463" y1="857" x2="-38463" y2="12829"/>
<line x1="-71698" y1="1459" x2="-71698" y2="14221"/>
<line x1="-71848" y1="1459" x2="-71848" y2="14221"/>
<line x1="-71874" y1="1459" x2="-71874" y2="14221"/>
<line x1="-71672" y1="1433" x2="-71672" y2="14674"/>
<line x1="-93397" y1="-4415" x2="-91752" y2="7307"/>
<line x1="-93054" y1="-3413" x2="-91594" y2="6997"/>
<line x1="-92955" y1="-3427" x2="-91487" y2="7037"/>
<line x1="-93694" y1="-4373" x2="-92072" y2="7189"/>
<line x1="-94019" y1="-4327" x2="-92421" y2="7059"/>
<line x1="63549" y1="-2873" x2="104837" y2="-26640"/>
<line x1="-35023" y1="1734" x2="-35023" y2="14588"/>
<line x1="-35223" y1="14588" x2="-35223" y2="1734"/>
<line x1="25910" y1="-1791" x2="18706" y2="-1791"/>
<line x1="39381" y1="-1941" x2="43577" y2="-1941"/>
<line x1="63142" y1="13512" x2="63142" y2="18758"/>
<line x1="63168" y1="13486" x2="63168" y2="18758"/>
<line x1="63050" y1="13604" x2="63050" y2="18758"/>
<line x1="63024" y1="13630" x2="63024" y2="18758"/>
<line x1="63015" y1="13639" x2="63015" y2="18121"/>
<line x1="54437" y1="18130" x2="54437" y2="8071"/>
<line x1="54446" y1="18121" x2="54446" y2="8083"/>
<line x1="54345" y1="18130" x2="54345" y2="10921"/>
<line x1="-14060" y1="857" x2="-19511" y2="857"/>
<line x1="-15005" y1="1105" x2="-19335" y2="1105"/>
<line x1="-11461" y1="857" x2="-3013" y2="857"/>
<line x1="-5615" y1="1057" x2="-11253" y2="1057"/>
<line x1="-5615" y1="905" x2="-11253" y2="905"/>
<line x1="-23535" y1="857" x2="-29356" y2="857"/>
<line x1="-23711" y1="1105" x2="-28041" y2="1105"/>
<line x1="-44160" y1="857" x2="-53871" y2="857"/>
<line x1="-56470" y1="857" x2="-65636" y2="857"/>
<line x1="-68235" y1="857" x2="-72273" y2="857"/>
<line x1="-46658" y1="1105" x2="-50910" y2="1105"/>
<line x1="-59586" y1="1105" x2="-63680" y2="1105"/>
<line x1="-61129" y1="3284" x2="-65643" y2="3284"/>
<line x1="-61129" y1="3024" x2="-65460" y2="3024"/>
<line x1="-36240" y1="21573" x2="-42805" y2="21573"/>
<line x1="58491" y1="19508" x2="51087" y2="19508"/>
<line x1="72039" y1="19570" x2="84684" y2="17863"/>
<line x1="72036" y1="19535" x2="84678" y2="17828"/>
<line x1="72026" y1="19383" x2="84650" y2="17678"/>
<line x1="72040" y1="19583" x2="84686" y2="17875"/>
<line x1="72040" y1="19596" x2="84689" y2="17888"/>
<line x1="62028" y1="19383" x2="67928" y2="19383"/>
<line x1="62028" y1="19535" x2="67938" y2="19535"/>
<line x1="62028" y1="19535" x2="72036" y2="19535"/>
<line x1="62028" y1="19383" x2="72026" y2="19383"/>
<line x1="67869" y1="18497" x2="86577" y2="15971"/>
<line x1="67858" y1="18345" x2="86577" y2="15818"/>
<line x1="67856" y1="18310" x2="86577" y2="15783"/>
<line x1="67855" y1="18297" x2="86577" y2="15770"/>
<line x1="67854" y1="18284" x2="86577" y2="15757"/>
<line x1="67830" y1="17925" x2="86528" y2="15400"/>
<line x1="63168" y1="18284" x2="67854" y2="18284"/>
<line x1="63168" y1="18297" x2="67855" y2="18297"/>
<line x1="63168" y1="18310" x2="67856" y2="18310"/>
<line x1="63168" y1="18345" x2="67858" y2="18345"/>
<line x1="63168" y1="18497" x2="67869" y2="18497"/>
<line x1="98677" y1="22984" x2="91977" y2="22984"/>
<line x1="91777" y1="23184" x2="98877" y2="23184"/>
<line x1="7540" y1="6835" x2="7540" y2="857"/>
<line x1="7240" y1="6835" x2="7240" y2="857"/>
<line x1="6740" y1="6835" x2="6740" y2="1657"/>
<line x1="444" y1="857" x2="5942" y2="857"/>
<line x1="444" y1="1657" x2="5942" y2="1657"/>
<line x1="29069" y1="-1791" x2="43727" y2="-1791"/>
<line x1="49027" y1="3544" x2="49027" y2="-2758"/>
<line x1="50487" y1="3544" x2="50487" y2="-2758"/>
<line x1="48197" y1="4044" x2="48197" y2="-1428"/>
<line x1="-74143" y1="1084" x2="-79873" y2="1084"/>
<line x1="-79873" y1="1934" x2="-74143" y2="1934"/>
<line x1="-74851" y1="3734" x2="-79873" y2="3734"/>
<line x1="-79923" y1="3838" x2="-74103" y2="3838"/>
<line x1="-79873" y1="3734" x2="-74851" y2="3734"/>
<line x1="-79923" y1="3746" x2="-74839" y2="3746"/>
<line x1="84689" y1="17888" x2="90527" y2="16547"/>
<line x1="84686" y1="17875" x2="90524" y2="16534"/>
<line x1="84683" y1="17863" x2="90521" y2="16521"/>
<line x1="84678" y1="17828" x2="90501" y2="16490"/>
<line x1="84650" y1="17678" x2="90351" y2="16368"/>
<line x1="98928" y1="-2304" x2="92142" y2="-2304"/>
<line x1="90527" y1="8787" x2="90527" y2="9"/>
<line x1="80078" y1="127948" x2="90078" y2="127948"/>
<line x1="90078" y1="129073" x2="80078" y2="129073"/>
<line x1="89538" y1="1378" x2="89538" y2="10628"/>
<line x1="-14900" y1="16601" x2="-21346" y2="16601"/>
<line x1="-14887" y1="16575" x2="-21359" y2="16575"/>
<line x1="-14900" y1="16738" x2="-21346" y2="16738"/>
<line x1="-14887" y1="16751" x2="-21359" y2="16751"/>
<line x1="-14992" y1="16786" x2="-21254" y2="16786"/>
<line x1="-14992" y1="16798" x2="-21254" y2="16798"/>
<line x1="-15014" y1="16807" x2="-21232" y2="16807"/>
<line x1="-28146" y1="16588" x2="-21700" y2="16588"/>
<line x1="-28159" y1="16575" x2="-21687" y2="16575"/>
<line x1="-28146" y1="16738" x2="-21700" y2="16738"/>
<line x1="-28159" y1="16751" x2="-21687" y2="16751"/>
<line x1="-28054" y1="16786" x2="-21792" y2="16786"/>
<line x1="-28054" y1="16798" x2="-21792" y2="16798"/>
<line x1="-28032" y1="16807" x2="-21814" y2="16807"/>
<line x1="-28500" y1="16588" x2="-34873" y2="16588"/>
<line x1="-28487" y1="16575" x2="-34873" y2="16575"/>
<line x1="-28500" y1="16738" x2="-34873" y2="16738"/>
<line x1="-28487" y1="16751" x2="-34873" y2="16751"/>
<line x1="-28592" y1="16786" x2="-34873" y2="16786"/>
<line x1="-28592" y1="16798" x2="-34873" y2="16798"/>
<line x1="-28614" y1="16807" x2="-34837" y2="16807"/>
<line x1="-45000" y1="16588" x2="-51446" y2="16588"/>
<line x1="-44987" y1="16575" x2="-51459" y2="16575"/>
<line x1="-45000" y1="16738" x2="-51446" y2="16738"/>
<line x1="-44987" y1="16751" x2="-51459" y2="16751"/>
<line x1="-45092" y1="16786" x2="-51354" y2="16786"/>
<line x1="-45092" y1="16798" x2="-51354" y2="16798"/>
<line x1="-45114" y1="16807" x2="-51332" y2="16807"/>
<line x1="-58246" y1="16588" x2="-51800" y2="16588"/>
<line x1="-58259" y1="16575" x2="-51787" y2="16575"/>
<line x1="-58246" y1="16738" x2="-51800" y2="16738"/>
<line x1="-58259" y1="16751" x2="-51787" y2="16751"/>
<line x1="-58154" y1="16786" x2="-51892" y2="16786"/>
<line x1="-58154" y1="16798" x2="-51892" y2="16798"/>
<line x1="-58132" y1="16807" x2="-51914" y2="16807"/>
<line x1="-58600" y1="16588" x2="-65046" y2="16588"/>
<line x1="-58587" y1="16575" x2="-65059" y2="16575"/>
<line x1="-58600" y1="16738" x2="-65046" y2="16738"/>
<line x1="-58587" y1="16751" x2="-65059" y2="16751"/>
<line x1="-58692" y1="16786" x2="-64954" y2="16786"/>
<line x1="-58692" y1="16798" x2="-64954" y2="16798"/>
<line x1="-58714" y1="16807" x2="-64932" y2="16807"/>
<line x1="-79014" y1="-6281" x2="-83790" y2="-5611"/>
<line x1="-73375" y1="-6285" x2="-93069" y2="-3512"/>
<line x1="-93054" y1="-3413" x2="-73361" y2="-6186"/>
<line x1="10971" y1="-4346" x2="43527" y2="-4346"/>
<line x1="13577" y1="20888" x2="41327" y2="20888"/>
<line x1="13493" y1="20972" x2="41410" y2="20972"/>
<line x1="13443" y1="21022" x2="41460" y2="21022"/>
<line x1="13577" y1="20888" x2="13577" y2="13857"/>
<line x1="13563" y1="20668" x2="13563" y2="13995"/>
<line x1="13443" y1="13724" x2="13443" y2="21022"/>
<line x1="13573" y1="20668" x2="13573" y2="13995"/>
<line x1="13493" y1="13774" x2="41460" y2="13774"/>
<line x1="13443" y1="13724" x2="41460" y2="13724"/>
<line x1="13493" y1="20972" x2="13493" y2="13774"/>
<line x1="43527" y1="-4636" x2="10875" y2="-4636"/>
<line x1="11131" y1="-3698" x2="43577" y2="-3698"/>
<line x1="11153" y1="-3633" x2="43577" y2="-3633"/>
<line x1="29069" y1="-1941" x2="36197" y2="-1941"/>
<line x1="51805" y1="-6369" x2="57810" y2="-6370"/>
<line x1="-72267" y1="-1376" x2="-72267" y2="-5643"/>
<line x1="-73289" y1="-1249" x2="-73289" y2="-5785"/>
<line x1="93081" y1="44835" x2="93081" y2="40368"/>
<line x1="92931" y1="44835" x2="92931" y2="40368"/>
<line x1="92891" y1="44835" x2="92891" y2="40408"/>
<line x1="-34873" y1="3181" x2="-34873" y2="14588"/>
<line x1="-34860" y1="3284" x2="-34860" y2="14631"/>
<line x1="54226" y1="7859" x2="60926" y2="7859"/>
<line x1="100245" y1="36283" x2="94645" y2="36283"/>
<line x1="94645" y1="38908" x2="100245" y2="38908"/>
<line x1="100245" y1="38958" x2="94645" y2="38958"/>
<line x1="99895" y1="39008" x2="94995" y2="39008"/>
<line x1="62003" y1="19570" x2="72039" y2="19570"/>
<line x1="61990" y1="19583" x2="72040" y2="19583"/>
<line x1="61977" y1="19596" x2="72040" y2="19596"/>
<line x1="61238" y1="-2731" x2="61238" y2="2799"/>
<line x1="61054" y1="-2876" x2="51805" y2="-2876"/>
<line x1="51087" y1="4344" x2="51087" y2="-2758"/>
<line x1="-9398" y1="22834" x2="-15298" y2="22834"/>
<line x1="-15298" y1="22834" x2="-15298" y2="18834"/>
<line x1="-15298" y1="18834" x2="-9398" y2="18834"/>
<line x1="-45181" y1="18834" x2="-51181" y2="18834"/>
<line x1="-53456" y1="22834" x2="-45181" y2="22834"/>
<line x1="-45181" y1="22834" x2="-45181" y2="18834"/>
<line x1="-36416" y1="22609" x2="-42629" y2="22609"/>
<line x1="-80065" y1="859" x2="-88433" y2="859"/>
<line x1="6277" y1="16619" x2="6277" y2="11519"/>
<line x1="11032" y1="-4232" x2="43527" y2="-4232"/>
<line x1="11032" y1="-4152" x2="43527" y2="-4152"/>
<line x1="-83725" y1="-5505" x2="-79048" y2="-6161"/>
<line x1="-78651" y1="-6217" x2="-73388" y2="-6955"/>
<line x1="-83713" y1="-5426" x2="-79036" y2="-6082"/>
<line x1="-78640" y1="-6137" x2="-73456" y2="-6865"/>
<line x1="92653" y1="45268" x2="92653" y2="40258"/>
<line x1="92803" y1="45268" x2="92803" y2="40258"/>
<line x1="100678" y1="39158" x2="95003" y2="39158"/>
<line x1="100828" y1="39008" x2="95003" y2="39008"/>
<line x1="99565" y1="40760" x2="92981" y2="40758"/>
<line x1="99565" y1="40258" x2="93081" y2="40258"/>
<line x1="100828" y1="42708" x2="92981" y2="42708"/>
<line x1="95282" y1="45637" x2="100828" y2="45637"/>
<line x1="95282" y1="57668" x2="95282" y2="61844"/>
<line x1="167053" y1="23107" x2="106519" y2="23107"/>
<line x1="167053" y1="23307" x2="106719" y2="23307"/>
<line x1="167053" y1="25507" x2="106519" y2="25507"/>
<line x1="167053" y1="25307" x2="106719" y2="25307"/>
<line x1="55618" y1="3164" x2="61198" y2="3164"/>
<line x1="61198" y1="3164" x2="61198" y2="-2836"/>
<line x1="61198" y1="-2836" x2="51127" y2="-2836"/>
<line x1="51127" y1="-2836" x2="51127" y2="4304"/>
<line x1="53028" y1="4304" x2="53028" y2="-2636"/>
<line x1="53028" y1="-2636" x2="60998" y2="-2636"/>
<line x1="60998" y1="-2636" x2="60998" y2="2964"/>
<line x1="-87223" y1="8359" x2="-78723" y2="8359"/>
<line x1="-2473" y1="11309" x2="1682" y2="11309"/>
<line x1="1695" y1="11259" x2="-2473" y2="11259"/>
<line x1="2777" y1="14459" x2="-2473" y2="14459"/>
<line x1="-2273" y1="14659" x2="2777" y2="14659"/>
<line x1="-5673" y1="10409" x2="-773" y2="10409"/>
<line x1="-773" y1="11009" x2="-5673" y2="11009"/>
<line x1="6077" y1="17909" x2="6077" y2="10209"/>
<line x1="6277" y1="10009" x2="6277" y2="18109"/>
<line x1="-5873" y1="10209" x2="437" y2="10209"/>
<line x1="2777" y1="11209" x2="-5673" y2="11209"/>
<line x1="-5673" y1="11209" x2="-5673" y2="19109"/>
<line x1="-5873" y1="19109" x2="-5873" y2="10209"/>
<line x1="93077" y1="7797" x2="93077" y2="16297"/>
<line x1="92877" y1="16297" x2="92877" y2="7597"/>
<line x1="92877" y1="7597" x2="98877" y2="7597"/>
<line x1="91977" y1="16297" x2="98877" y2="16297"/>
<line x1="91977" y1="16497" x2="98677" y2="16497"/>
<line x1="91977" y1="20997" x2="98677" y2="20997"/>
<line x1="91777" y1="21197" x2="98877" y2="21197"/>
<line x1="98677" y1="16497" x2="98677" y2="20997"/>
<line x1="98477" y1="20297" x2="92477" y2="20297"/>
<line x1="98477" y1="20247" x2="92477" y2="20247"/>
<line x1="98477" y1="17197" x2="92477" y2="17197"/>
<line x1="98477" y1="17247" x2="92477" y2="17247"/>
<line x1="98877" y1="16297" x2="98877" y2="21197"/>
<line x1="54087" y1="18157" x2="54087" y2="12357"/>
<line x1="54287" y1="12157" x2="54287" y2="18357"/>
<line x1="52616" y1="19508" x2="57374" y2="19508"/>
<line x1="52616" y1="19708" x2="57302" y2="19708"/>
<line x1="56816" y1="20984" x2="52616" y2="20984"/>
<line x1="52264" y1="19615" x2="57335" y2="19615"/>
<line x1="57341" y1="19600" x2="52264" y2="19600"/>
<line x1="52264" y1="22127" x2="56477" y2="22127"/>
<line x1="56471" y1="22142" x2="52264" y2="22142"/>
<line x1="56495" y1="22076" x2="51966" y2="22077"/>
<line x1="56509" y1="22036" x2="51966" y2="22037"/>
<line x1="57317" y1="19665" x2="51966" y2="19665"/>
<line x1="57303" y1="19705" x2="51966" y2="19705"/>
<line x1="-75423" y1="4914" x2="-83973" y2="4914"/>
<line x1="-75423" y1="5104" x2="-83973" y2="5104"/>
<line x1="-79923" y1="1459" x2="-87223" y2="1459"/>
<line x1="-80113" y1="1649" x2="-87223" y2="1649"/>
<line x1="-78723" y1="8359" x2="-87223" y2="8359"/>
<line x1="-78913" y1="8549" x2="-87223" y2="8549"/>
<line x1="98677" y1="7797" x2="98677" y2="16297"/>
<line x1="83272" y1="-3134" x2="83272" y2="15342"/>
<line x1="70507" y1="-5227" x2="70509" y2="17446"/>
<line x1="82331" y1="-3276" x2="82331" y2="15484"/>
<line x1="81392" y1="-3418" x2="81392" y2="15626"/>
<line x1="80452" y1="-3560" x2="80452" y2="15768"/>
<line x1="79514" y1="-3701" x2="79514" y2="15910"/>
<line x1="78575" y1="-3843" x2="78575" y2="16052"/>
<line x1="76086" y1="-4220" x2="76089" y2="16438"/>
<line x1="75156" y1="-4388" x2="75158" y2="16606"/>
<line x1="74226" y1="-4556" x2="74228" y2="16774"/>
<line x1="73296" y1="-4724" x2="73298" y2="16942"/>
<line x1="72366" y1="-4892" x2="72369" y2="17110"/>
<line x1="71436" y1="-5059" x2="71439" y2="17278"/>
<line x1="69577" y1="-5395" x2="69580" y2="17614"/>
<line x1="68648" y1="-5563" x2="68650" y2="17781"/>
<line x1="67704" y1="-5674" x2="67717" y2="17934"/>
<line x1="66744" y1="-5717" x2="66746" y2="17934"/>
<line x1="65847" y1="13416" x2="75602" y2="11766"/>
<line x1="65847" y1="-1208" x2="75602" y2="442"/>
<line x1="-72274" y1="-5778" x2="-72267" y2="-1249"/>
<line x1="167053" y1="21795" x2="177832" y2="21833"/>
<line x1="90348" y1="523" x2="90348" y2="13627"/>
<line x1="90322" y1="521" x2="90322" y2="13780"/>
<line x1="90498" y1="13627" x2="90498" y2="523"/>
<line x1="91894" y1="7845" x2="91894" y2="1197"/>
<line x1="91914" y1="7595" x2="91914" y2="1217"/>
<line x1="84344" y1="15850" x2="78374" y2="16656"/>
<line x1="76160" y1="16955" x2="67866" y2="18075"/>
<line x1="84324" y1="15699" x2="78353" y2="16506"/>
<line x1="76290" y1="16784" x2="67856" y2="17923"/>
<line x1="84354" y1="15660" x2="78314" y2="16476"/>
<line x1="76320" y1="16745" x2="67853" y2="17888"/>
<line x1="84365" y1="15645" x2="78299" y2="16464"/>
<line x1="76331" y1="16730" x2="67852" y2="17875"/>
<line x1="84376" y1="15631" x2="78285" y2="16453"/>
<line x1="76342" y1="16716" x2="67852" y2="17862"/>
<line x1="76294" y1="16359" x2="67827" y2="17502"/>
<line x1="67936" y1="19113" x2="76449" y2="17963"/>
<line x1="67925" y1="18961" x2="76278" y2="17833"/>
<line x1="67938" y1="19148" x2="76489" y2="17993"/>
<line x1="78579" y1="18441" x2="84619" y2="17625"/>
<line x1="67939" y1="19161" x2="76503" y2="18004"/>
<line x1="78568" y1="18456" x2="84634" y2="17637"/>
<line x1="67940" y1="19174" x2="76518" y2="18015"/>
<line x1="78557" y1="18470" x2="84648" y2="17648"/>
<line x1="78738" y1="18233" x2="84414" y2="17464"/>
<line x1="78609" y1="18402" x2="84585" y2="17595"/>
<line x1="90524" y1="13780" x2="90524" y2="522"/>
<line x1="75832" y1="-5777" x2="79986" y2="-5216"/>
<line x1="75812" y1="-5628" x2="79966" y2="-5068"/>
<line x1="86307" y1="-4396" x2="90805" y2="-3788"/>
<line x1="86298" y1="-4416" x2="90826" y2="-3804"/>
<line x1="76083" y1="-4221" x2="76086" y2="16437"/>
<line x1="75153" y1="-4389" x2="75156" y2="16605"/>
<line x1="3253" y1="37143" x2="16928" y2="37143"/>
<line x1="25603" y1="37143" x2="39478" y2="37143"/>
<line x1="65553" y1="39993" x2="65553" y2="48193"/>
<line x1="71438" y1="85143" x2="71438" y2="68493"/>
<line x1="71438" y1="68493" x2="65603" y2="68493"/>
<line x1="65603" y1="68493" x2="65553" y2="48343"/>
<line x1="58533" y1="71843" x2="45908" y2="71843"/>
<line x1="33289" y1="78243" x2="60298" y2="78243"/>
<line x1="60263" y1="88056" x2="32203" y2="88056"/>
<line x1="61053" y1="59692" x2="61053" y2="68929"/>
<line x1="60978" y1="59692" x2="60978" y2="68929"/>
<line x1="59033" y1="59692" x2="59033" y2="69019"/>
<line x1="59153" y1="68929" x2="59153" y2="59692"/>
<line x1="60078" y1="68642" x2="60078" y2="63902"/>
<line x1="60078" y1="64102" x2="60078" y2="59742"/>
<line x1="61729" y1="63825" x2="61729" y2="59735"/>
<line x1="65603" y1="68493" x2="65603" y2="59093"/>
<line x1="66603" y1="34493" x2="61303" y2="34493"/>
<line x1="66503" y1="33892" x2="61753" y2="33892"/>
<line x1="68203" y1="31193" x2="61153" y2="31193"/>
<line x1="67603" y1="31793" x2="61753" y2="31793"/>
<line x1="67603" y1="34493" x2="67603" y2="40743"/>
<line x1="68203" y1="31193" x2="68203" y2="40743"/>
<line x1="64603" y1="50143" x2="64603" y2="37493"/>
<line x1="65553" y1="48966" x2="65553" y2="39993"/>
<line x1="60978" y1="49543" x2="60978" y2="40307"/>
<line x1="61053" y1="49543" x2="61053" y2="40307"/>
<line x1="59055" y1="49543" x2="59055" y2="40217"/>
<line x1="59153" y1="40307" x2="59153" y2="49543"/>
<line x1="60140" y1="40593" x2="60140" y2="45333"/>
<line x1="60140" y1="45133" x2="60140" y2="49493"/>
<line x1="61729" y1="45410" x2="61729" y2="49500"/>
<line x1="55190" y1="37143" x2="61153" y2="37143"/>
<line x1="64603" y1="71843" x2="60413" y2="71843"/>
<line x1="70826" y1="74793" x2="65388" y2="71793"/>
<line x1="65388" y1="74793" x2="70826" y2="71793"/>
<line x1="71238" y1="70543" x2="64788" y2="70543"/>
<line x1="70826" y1="71793" x2="65388" y2="71793"/>
<line x1="71238" y1="70843" x2="64988" y2="70843"/>
<line x1="67103" y1="68693" x2="71238" y2="68693"/>
<line x1="67103" y1="68493" x2="71438" y2="68493"/>
<line x1="64603" y1="71843" x2="64603" y2="62166"/>
<line x1="71238" y1="75343" x2="64988" y2="75343"/>
<line x1="70826" y1="74793" x2="65388" y2="74793"/>
<line x1="49829" y1="78153" x2="54938" y2="78153"/>
<line x1="60273" y1="74918" x2="54938" y2="74918"/>
<line x1="60198" y1="74993" x2="55013" y2="74993"/>
<line x1="16618" y1="87053" x2="10603" y2="87053"/>
<line x1="12803" y1="71843" x2="1083" y2="71843"/>
<line x1="32203" y1="88343" x2="9103" y2="88343"/>
<line x1="39478" y1="37143" x2="33403" y2="37143"/>
<line x1="32203" y1="88056" x2="16618" y2="88056"/>
<line x1="26603" y1="78153" x2="30901" y2="78153"/>
<line x1="21503" y1="78243" x2="32519" y2="78243"/>
<line x1="37703" y1="78055" x2="33603" y2="78055"/>
<line x1="32052" y1="74763" x2="38203" y2="74763"/>
<line x1="32127" y1="74838" x2="37703" y2="74838"/>
<line x1="39185" y1="71843" x2="32693" y2="71843"/>
<line x1="42874" y1="78053" x2="38303" y2="78055"/>
<line x1="31273" y1="73733" x2="36863" y2="73733"/>
<line x1="31183" y1="73823" x2="36953" y2="73823"/>
<line x1="21503" y1="78243" x2="21503" y2="71843"/>
<line x1="21593" y1="77843" x2="21593" y2="72446"/>
<line x1="21903" y1="78153" x2="26203" y2="78153"/>
<line x1="12806" y1="78243" x2="12806" y2="73278"/>
<line x1="12603" y1="77843" x2="12603" y2="73353"/>
<line x1="-3797" y1="68743" x2="-3797" y2="40693"/>
<line x1="1493" y1="61538" x2="1493" y2="47698"/>
<line x1="1583" y1="61538" x2="1583" y2="47698"/>
<line x1="993" y1="61628" x2="993" y2="47608"/>
<line x1="-807" y1="69243" x2="-807" y2="40013"/>
<line x1="-3797" y1="31123" x2="-3797" y2="40673"/>
<line x1="-3297" y1="34123" x2="-3297" y2="39923"/>
<line x1="-3197" y1="34223" x2="-3197" y2="39823"/>
<line x1="-2587" y1="39323" x2="-2587" y2="34813"/>
<line x1="2503" y1="34123" x2="-3297" y2="34123"/>
<line x1="-3597" y1="31123" x2="3253" y2="31123"/>
<line x1="-3297" y1="31623" x2="2753" y2="31623"/>
<line x1="1653" y1="32098" x2="-2745" y2="32098"/>
<line x1="1563" y1="33823" x2="-3297" y2="33823"/>
<line x1="954" y1="34223" x2="-3197" y2="34223"/>
<line x1="9215" y1="37143" x2="3253" y2="37143"/>
<line x1="9215" y1="37343" x2="3253" y2="37343"/>
<line x1="-3297" y1="39923" x2="913" y2="39923"/>
<line x1="-5797" y1="88343" x2="-10397" y2="88343"/>
<line x1="-5647" y1="72193" x2="-10047" y2="72193"/>
<line x1="-5970" y1="71843" x2="-10397" y2="71843"/>
<line x1="-9897" y1="86093" x2="-5577" y2="86093"/>
<line x1="10403" y1="87843" x2="10403" y2="83643"/>
<line x1="10603" y1="87053" x2="10603" y2="82843"/>
<line x1="8003" y1="72043" x2="3503" y2="72043"/>
<line x1="8003" y1="72643" x2="3503" y2="72643"/>
<line x1="8003" y1="72543" x2="3503" y2="72543"/>
<line x1="8453" y1="82193" x2="2703" y2="82193"/>
<line x1="8003" y1="77643" x2="2603" y2="77643"/>
<line x1="2703" y1="87443" x2="2703" y2="82693"/>
<line x1="-5497" y1="72343" x2="-5497" y2="78553"/>
<line x1="-5647" y1="72469" x2="-5647" y2="77543"/>
<line x1="-2037" y1="79143" x2="-2037" y2="71993"/>
<line x1="-1947" y1="79143" x2="-1947" y2="71993"/>
<line x1="1083" y1="70043" x2="1083" y2="64218"/>
<line x1="993" y1="70043" x2="993" y2="64128"/>
<line x1="1503" y1="81693" x2="-3447" y2="81693"/>
<line x1="1413" y1="81603" x2="-3357" y2="81603"/>
<line x1="10603" y1="88343" x2="-1797" y2="88343"/>
<line x1="-1797" y1="98293" x2="-5797" y2="98293"/>
<line x1="-1797" y1="93843" x2="-1797" y2="98293"/>
<line x1="-1797" y1="88343" x2="-1797" y2="98293"/>
<line x1="-5797" y1="93843" x2="-5797" y2="98293"/>
<line x1="-5797" y1="88343" x2="-5797" y2="98293"/>
<line x1="-10397" y1="88343" x2="-10397" y2="71843"/>
<line x1="-5477" y1="86093" x2="503" y2="86093"/>
<line x1="45124" y1="78128" x2="49377" y2="78128"/>
<line x1="37503" y1="70043" x2="47503" y2="70043"/>
<line x1="47503" y1="69943" x2="37503" y2="69943"/>
<line x1="21503" y1="70043" x2="31503" y2="70043"/>
<line x1="31503" y1="69943" x2="21503" y2="69943"/>
<line x1="5285" y1="28811" x2="5285" y2="33819"/>
<line x1="6385" y1="26549" x2="6385" y2="33819"/>
<line x1="7185" y1="26549" x2="7185" y2="33819"/>
<line x1="4569" y1="27659" x2="4569" y2="33819"/>
<line x1="4606" y1="28811" x2="4606" y2="33806"/>
<line x1="4417" y1="27659" x2="4417" y2="33819"/>
<line x1="4384" y1="27659" x2="4384" y2="33806"/>
<line x1="-2407" y1="26326" x2="1690" y2="26326"/>
<line x1="67602" y1="40817" x2="67602" y2="34544"/>
<line x1="66627" y1="34544" x2="61177" y2="34544"/>
<line x1="61177" y1="31125" x2="68625" y2="31125"/>
<line x1="61190" y1="31138" x2="68585" y2="31138"/>
<line x1="61340" y1="31288" x2="68435" y2="31288"/>
<line x1="65553" y1="39993" x2="65553" y2="48958"/>
<line x1="68625" y1="40817" x2="68625" y2="31125"/>
<line x1="68585" y1="40141" x2="68585" y2="31854"/>
<line x1="68435" y1="40141" x2="68435" y2="31854"/>
<line x1="65593" y1="50208" x2="65593" y2="39953"/>
<line x1="-3297" y1="31623" x2="1501" y2="31623"/>
<line x1="1653" y1="34123" x2="-3297" y2="34123"/>
<line x1="-3797" y1="31123" x2="-3797" y2="40423"/>
<line x1="68203" y1="35993" x2="68203" y2="48193"/>
<line x1="67603" y1="35993" x2="67603" y2="48193"/>
<line x1="68227" y1="31359" x2="61327" y2="31359"/>
<line x1="68077" y1="31384" x2="68077" y2="40584"/>
<line x1="67717" y1="31719" x2="61687" y2="31719"/>
<line x1="66437" y1="33998" x2="61687" y2="33998"/>
<line x1="67717" y1="34506" x2="67717" y2="40609"/>
<line x1="68227" y1="31384" x2="68227" y2="40584"/>
<line x1="67627" y1="34509" x2="67627" y2="40609"/>
<line x1="61377" y1="31409" x2="68027" y2="31409"/>
<line x1="67627" y1="31809" x2="61777" y2="31809"/>
<line x1="68227" y1="31209" x2="61177" y2="31209"/>
<line x1="66527" y1="33908" x2="61777" y2="33908"/>
<line x1="67627" y1="34509" x2="61377" y2="34509"/>
<line x1="66437" y1="34419" x2="61327" y2="34419"/>
<line x1="-2597" y1="39343" x2="-2597" y2="34783"/>
<line x1="1653" y1="32098" x2="-2875" y2="32098"/>
<line x1="1501" y1="31123" x2="-3297" y2="31123"/>
<line x1="58738" y1="49848" x2="58738" y2="59098"/>
<line x1="58938" y1="50048" x2="58938" y2="58898"/>
<line x1="58863" y1="49973" x2="58863" y2="58973"/>
<line x1="45531" y1="37427" x2="52295" y2="37427"/>
<line x1="56686" y1="37427" x2="61121" y2="37427"/>
<line x1="45522" y1="37436" x2="52304" y2="37436"/>
<line x1="56686" y1="37436" x2="61121" y2="37436"/>
<line x1="47608" y1="37079" x2="52495" y2="37079"/>
<line x1="56495" y1="37079" x2="61121" y2="37079"/>
<line x1="47608" y1="37143" x2="52295" y2="37143"/>
<line x1="56695" y1="37143" x2="61121" y2="37143"/>
<line x1="47617" y1="37070" x2="52495" y2="37070"/>
<line x1="56495" y1="37070" x2="61081" y2="37070"/>
<line x1="39554" y1="37427" x2="33413" y2="37427"/>
<line x1="39478" y1="37363" x2="33413" y2="37363"/>
<line x1="39563" y1="37436" x2="33413" y2="37436"/>
<line x1="38932" y1="37079" x2="33413" y2="37079"/>
<line x1="39008" y1="37143" x2="33413" y2="37143"/>
<line x1="38923" y1="37070" x2="33413" y2="37070"/>
<line x1="18840" y1="37427" x2="4546" y2="37427"/>
<line x1="18764" y1="37363" x2="4546" y2="37363"/>
<line x1="18849" y1="37436" x2="4546" y2="37436"/>
<line x1="16843" y1="37079" x2="4546" y2="37079"/>
<line x1="16919" y1="37143" x2="4546" y2="37143"/>
<line x1="16834" y1="37070" x2="4546" y2="37070"/>
<line x1="45607" y1="37363" x2="52295" y2="37363"/>
<line x1="56695" y1="37363" x2="61121" y2="37363"/>
<line x1="24897" y1="37427" x2="31003" y2="37427"/>
<line x1="24973" y1="37363" x2="31003" y2="37363"/>
<line x1="24888" y1="37436" x2="31003" y2="37436"/>
<line x1="25519" y1="37079" x2="31003" y2="37079"/>
<line x1="25040" y1="37143" x2="31003" y2="37143"/>
<line x1="25528" y1="37070" x2="31003" y2="37070"/>
<line x1="4701" y1="57532" x2="45988" y2="33765"/>
<line x1="-29854" y1="64156" x2="-4054" y2="64156"/>
<line x1="-4054" y1="64156" x2="-4054" y2="68656"/>
<line x1="-4054" y1="68656" x2="-29854" y2="68656"/>
<line x1="75154" y1="47976" x2="85819" y2="47976"/>
<line x1="85819" y1="48676" x2="75154" y2="48676"/>
<line x1="65553" y1="47974" x2="73790" y2="47974"/>
<line x1="73790" y1="48674" x2="65553" y2="48674"/>
<line x1="87179" y1="47976" x2="95282" y2="47976"/>
<line x1="95282" y1="48676" x2="87179" y2="48676"/>
<line x1="95282" y1="45637" x2="134118" y2="45637"/>
<line x1="167053" y1="58183" x2="167053" y2="21795"/>
<line x1="168053" y1="58183" x2="168053" y2="21798"/>
<line x1="133353" y1="42008" x2="140203" y2="42008"/>
<line x1="129078" y1="45979" x2="133703" y2="45979"/>
<line x1="129078" y1="45637" x2="134118" y2="45637"/>
<line x1="140203" y1="46358" x2="140203" y2="42008"/>
<line x1="141803" y1="58213" x2="136853" y2="58213"/>
<line x1="141803" y1="61993" x2="136853" y2="61993"/>
<line x1="95282" y1="45637" x2="101177" y2="45637"/>
<line x1="106519" y1="23107" x2="101777" y2="23107"/>
<line x1="101777" y1="23107" x2="101777" y2="13609"/>
<line x1="101577" y1="13809" x2="101577" y2="23307"/>
<line x1="106519" y1="23307" x2="101577" y2="23307"/>
<line x1="167053" y1="23107" x2="106519" y2="23107"/>
<line x1="167053" y1="23307" x2="106719" y2="23307"/>
<line x1="167053" y1="25507" x2="106519" y2="25507"/>
<line x1="167053" y1="25307" x2="106719" y2="25307"/>
<line x1="167053" y1="21795" x2="177832" y2="21833"/>
<line x1="135092" y1="23109" x2="135092" y2="27609"/>
<line x1="158560" y1="21795" x2="167053" y2="21795"/>
<line x1="167053" y1="21795" x2="167053" y2="26995"/>
<line x1="167053" y1="26995" x2="158560" y2="26995"/>
<line x1="149106" y1="59829" x2="159106" y2="59829"/>
<line x1="159106" y1="60229" x2="149106" y2="60229"/>
<line x1="149106" y1="59429" x2="159106" y2="59429"/>
<line x1="159106" y1="59829" x2="149106" y2="59829"/>
<line x1="160306" y1="58204" x2="166256" y2="58204"/>
<line x1="166256" y1="61454" x2="160306" y2="61454"/>
<line x1="141806" y1="58204" x2="147906" y2="58204"/>
<line x1="147906" y1="61452" x2="141806" y2="61452"/>
<line x1="100831" y1="42572" x2="133356" y2="42572"/>
<line x1="133356" y1="42772" x2="100831" y2="42772"/>
<line x1="100831" y1="42372" x2="133356" y2="42372"/>
<line x1="133356" y1="42572" x2="100831" y2="42572"/>
<line x1="137206" y1="58207" x2="137206" y2="46349"/>
<line x1="137406" y1="46349" x2="137406" y2="58207"/>
<line x1="137006" y1="58207" x2="137006" y2="46349"/>
<line x1="137206" y1="46349" x2="137206" y2="58207"/>
</g>
<g fill="#dbe5fb" stroke="#1a56db" stroke-width="265" stroke-linejoin="round">
<polygon points="74428,44686 74428,30686 80428,30686 80428,44686"/>
<polygon points="80428,44686 80428,35686 86428,35686 86428,44686"/>
<polygon points="75953,54686 75953,48686 84953,48686 84953,54686"/>
<polygon points="68277,19796 74277,19796 74277,25796 68277,25796"/>
<polygon points="77468,73143 83468,73143 83468,79143 77468,79143"/>
<polygon points="81277,18549 87277,18549 87277,24549 81277,24549"/>
<polygon points="49273,53060 49273,47060 55273,47060 55273,53060"/>
<polygon points="108440,60159 102440,60159 102440,66159 108440,66159"/>
<polygon points="117640,53859 111640,53859 111640,47859 117640,47859"/>
<polygon points="117640,60159 111640,60159 111640,66159 117640,66159"/>
<polygon points="126840,53859 120840,53859 120840,47859 126840,47859"/>
<polygon points="77468,73143 83468,73143 83468,67143 77468,67143"/>
<polygon points="36973,62285 36973,56285 30973,56285 30973,62285"/>
<polygon points="21973,62053 21973,56053 27973,56053 27973,62053"/>
<polygon points="15763,62053 15763,56053 9763,56053 9763,62053"/>
<polygon points="15763,53053 15763,47053 9763,47053 9763,53053"/>
<polygon points="21973,53053 21973,47053 27973,47053 27973,53053"/>
<polygon points="36973,53053 36973,47053 30973,47053 30973,53053"/>
<polygon points="108440,53859 102440,53859 102440,47859 108440,47859"/>
<polygon points="126840,60159 120840,60159 120840,66159 126840,66159"/>
<polygon points="49232,62285 49232,56285 55232,56285 55232,62285"/>
<polygon points="149893,68088 143893,68088 143893,74088 149893,74088"/>
<polygon points="158331,67992 164331,67992 164331,73992 158331,73992"/>
<polygon points="75377,19350 80377,19350 80377,26350 75377,26350"/>
<polygon points="75953,63936 75953,57936 80953,57946 80953,63946"/>
<polygon points="80428,35686 80428,30686 86428,30686 86428,35686"/>
<polygon points="130038,58459 133038,58459 133038,49459 130038,49459"/>
<polygon points="99276,58632 96276,58632 96276,67632 99276,67632"/>
<polygon points="89482,68406 92482,68406 92482,59406 89482,59406"/>
<polygon points="3562,62284 3562,68284 9562,68284 9562,65284 6562,65284 6562,62284"/>
<polygon points="3562,46953 3562,40953 9562,40953 9562,43953 6562,43953 6562,46953"/>
<polygon points="68298,59394 71298,59394 71298,68394 68298,68394"/>
<polygon points="33785,29193 24785,29193 24785,32193 33785,32193"/>
<polygon points="27755,41023 27755,44023 36755,44023 36755,41023"/>
<polygon points="32003,24172 23003,24172 23003,21172 32003,21172"/>
<polygon points="140752,85793 140752,88793 149752,88793 149752,85793"/>
<polygon points="80953,63936 80953,57936 84953,57946 84953,63946"/>
<polygon points="167653,84913 167653,80413 162653,80413 162653,84913"/>
<polygon points="33232,68278 33234,65278 39234,65282 39232,68282"/>
<polygon points="101403,87023 107403,87023 107403,84023 101403,84023"/>
<polygon points="161653,97011 158653,97011 158653,91011 161653,91011"/>
<polygon points="18685,32193 12685,32193 12685,29193 18685,29193"/>
<polygon points="108538,60009 105538,60009 105538,54009 108538,54009"/>
<polygon points="102340,60009 105340,60009 105340,54009 102340,54009"/>
<polygon points="130038,64459 133038,64459 133038,58459 130038,58459"/>
<polygon points="107403,87023 113403,87023 113403,84023 107403,84023"/>
<polygon points="51455,40903 51455,43903 57455,43903 57455,40903"/>
<polygon points="15873,49999 21873,49999 21873,46999 15873,46999"/>
<polygon points="45455,40903 45455,43903 51455,43903 51455,40903"/>
<polygon points="161653,103011 158653,103011 158653,97011 161653,97011"/>
<polygon points="177913,110263 180913,110263 180913,116263 177913,116263"/>
<polygon points="177913,98263 180913,98263 180913,104263 177913,104263"/>
<polygon points="43150,59381 49150,59381 49150,62381 43150,62381"/>
<polygon points="117753,60009 114753,60009 114753,54009 117753,54009"/>
<polygon points="126938,60009 123938,60009 123938,54009 126938,54009"/>
<polygon points="120740,60009 123740,60009 123740,54009 120740,54009"/>
<polygon points="77468,87643 83468,87643 83468,84643 77468,84643"/>
<polygon points="6566,56283 3566,56282 3563,62282 6563,62283"/>
<polygon points="51232,68283 51234,65283 57234,65286 57232,68286"/>
<polygon points="43173,49957 49173,49957 49173,46957 43173,46957"/>
<polygon points="6562,52953 3562,52953 3562,46953 6562,46953"/>
<polygon points="15873,53206 21873,53206 21873,50206 15873,50206"/>
<polygon points="43150,59181 49150,59181 49150,56181 43150,56181"/>
<polygon points="171913,116263 177913,116263 177913,119263 171913,119263"/>
<polygon points="45232,68280 45234,65280 51234,65283 51232,68283"/>
<polygon points="161653,109011 158653,109011 158653,103011 161653,103011"/>
<polygon points="15873,62154 21873,62154 21873,59154 15873,59154"/>
<polygon points="43173,50157 49173,50157 49173,53157 43173,53157"/>
<polygon points="39232,68278 39234,65278 45234,65280 45232,68280"/>
<polygon points="15873,58947 21873,58947 21873,55947 15873,55947"/>
<polygon points="134403,84023 128403,84023 128403,87023 134403,87023"/>
<polygon points="48953,30470 48953,33470 54953,33470 54953,30470"/>
<polygon points="111555,60009 114555,60009 114555,54009 111555,54009"/>
<polygon points="12562,43953 18562,43953 18562,40953 12562,40953"/>
<polygon points="37173,50164 43173,50164 43173,53164 37173,53164"/>
<polygon points="37150,59181 43150,59181 43150,56181 37150,56181"/>
<polygon points="37150,59381 43150,59381 43150,62381 37150,62381"/>
<polygon points="37173,49949 43173,49949 43173,46949 37173,46949"/>
<polygon points="54877,22335 60377,22335 60377,25335 54877,25335"/>
<polygon points="139593,78344 134593,78344 134593,81344 139593,81344"/>
<polygon points="41484,24172 37484,24172 37484,21172 41484,21172"/>
<polygon points="37484,24172 33484,24172 33484,21172 37484,21172"/>
<polygon points="21281,21172 17281,21172 17281,24172 21281,24172"/>
<polygon points="17281,21172 13281,21172 13281,24172 17281,24172"/>
<polygon points="27232,68276 27234,65276 30234,65280 30232,68280"/>
<polygon points="24232,68276 24234,65276 27234,65280 27232,68280"/>
<polygon points="30232,68276 30234,65276 33234,65280 33232,68280"/>
<polygon points="116403,84023 116403,87023 113403,87023 113403,84023"/>
<polygon points="91381,78344 94381,78344 94381,81344 91381,81344"/>
<polygon points="12562,43953 12562,40953 9562,40953 9562,43953"/>
<polygon points="133038,49459 133038,46459 130038,46459 130038,49459"/>
<polygon points="177913,104263 180913,104263 180913,107263 177913,107263"/>
<polygon points="128407,84023 128407,87023 125407,87023 125407,84023"/>
<polygon points="125407,84023 125407,87023 122407,87023 122407,84023"/>
<polygon points="101398,84023 101398,87023 98398,87023 98398,84023"/>
<polygon points="24233,65273 24233,68273 21233,68273 21233,65273"/>
<polygon points="24755,44023 24755,41023 27755,41023 27755,44023"/>
<polygon points="133038,67459 133038,64459 130038,64459 130038,67459"/>
<polygon points="119403,87023 122403,87023 122403,84023 119403,84023"/>
<polygon points="88381,78344 91381,78344 91381,81344 88381,81344"/>
<polygon points="45953,30470 45953,33470 48953,33470 48953,30470"/>
<polygon points="164652,93369 167652,93369 167652,96369 164652,96369"/>
<polygon points="164655,99379 167655,99379 167655,102379 164655,102379"/>
<polygon points="164653,105388 167653,105388 167653,108388 164653,108388"/>
<polygon points="164653,111398 167653,111398 167653,114398 164653,114398"/>
<polygon points="169338,105443 172338,105443 172338,108443 169338,108443"/>
<polygon points="169338,99843 172338,99843 172338,102843 169338,102843"/>
<polygon points="98398,84023 98398,87023 95398,87023 95398,84023"/>
<polygon points="95724,47779 98724,47779 98724,50779 95724,50779"/>
<polygon points="36785,32193 39785,32193 39785,29193 36785,29193"/>
<polygon points="12562,65286 12560,68286 9560,68284 9562,65284"/>
<polygon points="21233,65273 21233,68273 18233,68273 18233,65273"/>
<polygon points="177913,107263 180913,107263 180913,110263 177913,110263"/>
<polygon points="36755,44023 36755,41023 39755,41023 39755,44023"/>
<polygon points="33785,29193 36785,29193 36785,32193 33785,32193"/>
<polygon points="119403,84023 119403,87023 116403,87023 116403,84023"/>
<polygon points="140493,75344 143493,75344 143493,81344 140493,81344"/>
<polygon points="178138,70450 181638,70450 181638,66950 178138,66950"/>
<polygon points="176138,74850 178138,74850 178138,72850 176138,72850"/>
<polygon points="172138,83043 174138,83043 174138,81043 172138,81043"/>
<polygon points="176138,83043 178138,83043 178138,81043 176138,81043"/>
<polygon points="170138,83043 172138,83043 172138,81043 170138,81043"/>
<polygon points="179638,81043 181638,81043 181638,79043 179638,79043"/>
<polygon points="174138,77143 176138,77143 176138,75143 174138,75143"/>
<polygon points="176138,77143 178138,77143 178138,75143 176138,75143"/>
<polygon points="170138,77143 172138,77143 172138,75143 170138,75143"/>
<polygon points="172138,77143 174138,77143 174138,75143 172138,75143"/>
<polygon points="170138,74850 172138,74850 172138,72850 170138,72850"/>
<polygon points="172138,74850 174138,74850 174138,72850 172138,72850"/>
<polygon points="174138,74850 176138,74850 176138,72850 174138,72850"/>
<polygon points="174138,68950 176138,68950 176138,66950 174138,66950"/>
<polygon points="176138,68950 178138,68950 178138,66950 176138,66950"/>
<polygon points="170138,68950 172138,68950 172138,66950 170138,66950"/>
<polygon points="172138,68950 174138,68950 174138,66950 172138,66950"/>
<polygon points="179638,72450 181638,72450 181638,70450 179638,70450"/>
<polygon points="174138,83043 176138,83043 176138,81043 174138,81043"/>
<polygon points="179638,79043 181638,79043 181638,77043 179638,77043"/>
<polygon points="178138,74850 180138,74850 180138,72850 178138,72850"/>
<polygon points="41496,28668 40847,27195 41496,25668"/>
<polygon points="42505,28668 41856,27195 42505,25668"/>
</g></svg>